<svg width="24" height="24" viewBox="0 0 24 24" fill="none" xmlns="http://www.w3.org/2000/svg">
<rect width="24" height="24" fill=""/>
<rect x="7" y="8" width="16" height="16" rx="8" fill="url(#paint0_linear_655_42760)" fill-opacity="0.4"/>
<path fill-rule="evenodd" clip-rule="evenodd" d="M12.9997 2.88709L19.392 6.57769C20.0108 6.93495 20.392 7.59521 20.392 8.30974V15.6909C20.392 16.4055 20.0108 17.0657 19.392 17.423L12.9997 21.1136C12.3809 21.4709 11.6185 21.4709 10.9997 21.1136L4.60742 17.423C3.98862 17.0657 3.60742 16.4055 3.60742 15.6909V8.30974C3.60742 7.59521 3.98862 6.93495 4.60742 6.57769L10.9997 2.88709C11.6185 2.52982 12.3809 2.52982 12.9997 2.88709ZM9.99973 1.15504C11.2373 0.440508 12.7621 0.440508 13.9997 1.15504L20.392 4.84564C21.6296 5.56017 22.392 6.88068 22.392 8.30974V15.6909C22.392 17.12 21.6296 18.4405 20.392 19.155L13.9997 22.8456C12.7621 23.5602 11.2373 23.5602 9.99973 22.8456L3.60742 19.155C2.36982 18.4405 1.60742 17.12 1.60742 15.6909V8.30974C1.60742 6.88068 2.36982 5.56017 3.60742 4.84564L9.99973 1.15504ZM12.9998 9.88709L13.3299 10.0777C13.9487 10.435 14.3299 11.0952 14.3299 11.8097V12.1909C14.3299 12.9055 13.9487 13.5657 13.3299 13.923L12.9998 14.1136C12.381 14.4709 11.6186 14.4709 10.9998 14.1136L10.6697 13.923C10.0509 13.5657 9.66968 12.9055 9.66968 12.1909V11.8097C9.66968 11.0952 10.0509 10.435 10.6697 10.0777L10.9998 9.88709C11.6186 9.52982 12.381 9.52982 12.9998 9.88709ZM9.99981 8.15504C11.2374 7.44051 12.7622 7.44051 13.9998 8.15504L14.3299 8.34564C15.5675 9.06017 16.3299 10.3807 16.3299 11.8097V12.1909C16.3299 13.62 15.5675 14.9405 14.3299 15.655L13.9998 15.8456C12.7622 16.5602 11.2374 16.5602 9.99981 15.8456L9.66968 15.655C8.43207 14.9405 7.66968 13.62 7.66968 12.1909V11.8097C7.66968 10.3807 8.43207 9.06017 9.66968 8.34564L9.99981 8.15504Z" fill="#1C2023"/>
<defs>
<linearGradient id="paint0_linear_655_42760" x1="15" y1="8" x2="15" y2="24" gradientUnits="userSpaceOnUse">
<stop stop-color="#3E72ED"/>
<stop offset="1" stop-color="#3E72ED" stop-opacity="0"/>
</linearGradient>
</defs>
</svg>
